<svg id="visual" viewBox="0 0 900 600" width="900" height="600" xmlns="http://www.w3.org/2000/svg" xmlns:xlink="http://www.w3.org/1999/xlink" version="1.1"><rect x="0" y="0" width="900" height="600" fill="#001220"></rect><path d="M0 228L21.5 227.2C43 226.3 86 224.7 128.8 222.5C171.7 220.3 214.3 217.7 257.2 214.3C300 211 343 207 385.8 210.8C428.7 214.7 471.3 226.3 514.2 231.3C557 236.3 600 234.7 642.8 231.7C685.7 228.7 728.3 224.3 771.2 215C814 205.7 857 191.3 878.5 184.2L900 177L900 0L878.5 0C857 0 814 0 771.2 0C728.3 0 685.7 0 642.8 0C600 0 557 0 514.2 0C471.3 0 428.7 0 385.8 0C343 0 300 0 257.2 0C214.3 0 171.7 0 128.8 0C86 0 43 0 21.5 0L0 0Z" fill="#5b4e28"></path><path d="M0 171L21.5 173.5C43 176 86 181 128.8 182.5C171.7 184 214.3 182 257.2 173.3C300 164.7 343 149.3 385.8 146C428.7 142.7 471.3 151.3 514.2 151.2C557 151 600 142 642.8 144.3C685.7 146.7 728.3 160.3 771.2 171.3C814 182.3 857 190.7 878.5 194.8L900 199L900 0L878.5 0C857 0 814 0 771.2 0C728.3 0 685.7 0 642.8 0C600 0 557 0 514.2 0C471.3 0 428.7 0 385.8 0C343 0 300 0 257.2 0C214.3 0 171.7 0 128.8 0C86 0 43 0 21.5 0L0 0Z" fill="#806a28"></path><path d="M0 93L21.5 97C43 101 86 109 128.8 115.2C171.7 121.3 214.3 125.7 257.2 131.2C300 136.7 343 143.3 385.8 136.8C428.7 130.3 471.3 110.7 514.2 108.5C557 106.3 600 121.7 642.8 127.5C685.7 133.3 728.3 129.7 771.2 123.8C814 118 857 110 878.5 106L900 102L900 0L878.5 0C857 0 814 0 771.2 0C728.3 0 685.7 0 642.8 0C600 0 557 0 514.2 0C471.3 0 428.7 0 385.8 0C343 0 300 0 257.2 0C214.3 0 171.7 0 128.8 0C86 0 43 0 21.5 0L0 0Z" fill="#a78625"></path><path d="M0 89L21.5 84.7C43 80.3 86 71.7 128.8 67.7C171.7 63.7 214.3 64.3 257.2 66.3C300 68.3 343 71.7 385.8 74C428.7 76.3 471.3 77.7 514.2 78C557 78.3 600 77.7 642.8 74.5C685.7 71.3 728.3 65.7 771.2 70.8C814 76 857 92 878.5 100L900 108L900 0L878.5 0C857 0 814 0 771.2 0C728.3 0 685.7 0 642.8 0C600 0 557 0 514.2 0C471.3 0 428.7 0 385.8 0C343 0 300 0 257.2 0C214.3 0 171.7 0 128.8 0C86 0 43 0 21.5 0L0 0Z" fill="#d2a31d"></path><path d="M0 26L21.5 26.2C43 26.3 86 26.7 128.8 27.5C171.7 28.3 214.3 29.7 257.2 36.8C300 44 343 57 385.8 56.2C428.7 55.3 471.3 40.7 514.2 36.7C557 32.7 600 39.3 642.8 46.2C685.7 53 728.3 60 771.2 59.5C814 59 857 51 878.5 47L900 43L900 0L878.5 0C857 0 814 0 771.2 0C728.3 0 685.7 0 642.8 0C600 0 557 0 514.2 0C471.3 0 428.7 0 385.8 0C343 0 300 0 257.2 0C214.3 0 171.7 0 128.8 0C86 0 43 0 21.5 0L0 0Z" fill="#ffc107"></path></svg>